<svg width="568" height="320" viewBox="0 0 568 320" fill="none" xmlns="http://www.w3.org/2000/svg">
<path fill-rule="evenodd" clip-rule="evenodd" d="M12 104C7.58172 104 4 107.582 4 112V195C4 199.418 7.58172 203 12 203H95C99.4183 203 103 199.418 103 195V112C103 107.582 99.4183 104 95 104H12ZM24.6092 118.399H79.4793C84.4917 118.399 88.5685 122.476 88.5825 127.46V182.33C88.5825 187.328 84.5196 191.405 79.5073 191.405H72.0656C69.2174 191.238 66.7322 189.73 64.6658 186.951C64.3028 186.449 63.9538 185.918 63.6326 185.36C62.1946 182.944 61.1753 179.985 60.575 176.69C60.568 176.641 60.5575 176.592 60.5471 176.543C60.5366 176.494 60.5261 176.445 60.5191 176.396C60.4493 175.977 60.3795 175.531 60.3237 175.098C60.3097 175.014 60.2992 174.93 60.2888 174.847L60.2888 174.847L60.2887 174.847L60.2887 174.846C60.2783 174.763 60.2678 174.679 60.2538 174.595L60.1282 173.381C60.1212 173.269 60.1107 173.161 60.1003 173.052C60.0898 172.944 60.0793 172.836 60.0723 172.724L60.0671 172.651C60.041 172.286 60.0156 171.932 60.0025 171.565C59.9955 171.438 59.992 171.311 59.9884 171.181V171.181C59.985 171.056 59.9815 170.928 59.9746 170.798C59.9606 170.435 59.9467 170.058 59.9467 169.695V168.815C59.9537 168.641 59.9571 168.466 59.9606 168.291L59.9607 168.291C59.9641 168.117 59.9676 167.942 59.9746 167.768L60.0165 166.805C60.0305 166.469 60.0444 166.134 60.0723 165.799C60.0863 165.625 60.1038 165.447 60.1212 165.269L60.1212 165.269C60.1387 165.091 60.1561 164.913 60.1701 164.738C60.198 164.417 60.2259 164.11 60.2678 163.789C60.3097 163.412 60.3656 163.021 60.4214 162.63C60.4423 162.483 60.4633 162.34 60.4842 162.197L60.4843 162.197C60.5052 162.054 60.5261 161.911 60.5471 161.764C60.6169 161.317 60.7006 160.871 60.7844 160.424C60.8262 160.201 60.868 159.964 60.9099 159.727L60.91 159.726C61.0357 159.042 61.1893 158.358 61.3568 157.673C62.2783 154.644 61.8455 151.684 60.1701 149.52C58.5365 147.439 55.9815 146.378 52.9378 146.532H52.882C51.9188 146.613 50.9688 146.668 50.032 146.723H50.0319H50.0319L49.95 146.727C49.7894 146.734 49.6323 146.741 49.4752 146.748C49.3182 146.755 49.1611 146.762 49.0006 146.769C48.7878 146.779 48.575 146.79 48.3628 146.801L48.3618 146.801C47.9477 146.822 47.5356 146.844 47.1297 146.853C46.943 146.86 46.7598 146.863 46.5782 146.867C46.3932 146.87 46.21 146.874 46.0267 146.881L46.0236 146.881H46.0236H46.0235C45.494 146.895 44.9646 146.909 44.449 146.909H43.2902C42.8155 146.909 42.3408 146.909 41.88 146.895C41.6863 146.888 41.4926 146.884 41.3006 146.881C41.1051 146.877 40.9114 146.874 40.7212 146.867C40.4284 146.867 40.1356 146.854 39.8471 146.842L39.8468 146.842L39.8464 146.842C39.7087 146.836 39.572 146.83 39.4367 146.825C39.0458 146.811 38.6548 146.797 38.2779 146.769L38.2734 146.769C37.884 146.741 37.4946 146.713 37.119 146.685C36.9305 146.671 36.7385 146.658 36.5465 146.644L36.5382 146.643L36.5377 146.643C36.3487 146.629 36.1597 146.615 35.9741 146.602C35.8066 146.581 35.6391 146.563 35.4715 146.546L35.471 146.546C35.3036 146.528 35.1362 146.511 34.9689 146.49C34.8415 146.476 34.7127 146.463 34.5838 146.449L34.5745 146.448C34.3109 146.42 34.0473 146.392 33.7961 146.364L33.5448 146.322C32.5116 146.183 31.5203 146.015 30.5709 145.834C30.4813 145.815 30.3917 145.798 30.3034 145.782L30.3032 145.782L30.3031 145.782C30.1989 145.763 30.0967 145.745 29.9985 145.722C29.8326 145.682 29.6714 145.644 29.512 145.607L29.5113 145.607L29.5106 145.607C29.2814 145.553 29.056 145.5 28.8257 145.443C28.7321 145.418 28.6385 145.396 28.5462 145.374L28.546 145.374C28.4317 145.347 28.3194 145.32 28.2113 145.289C27.8344 145.192 27.4714 145.094 27.1084 144.982L27.1076 144.982C26.9124 144.926 26.7172 144.87 26.5359 144.815L26.5358 144.815L26.5357 144.814L26.5356 144.814C26.1867 144.703 25.8377 144.591 25.5027 144.466C25.3352 144.41 25.1677 144.354 25.0001 144.284C24.6653 144.158 24.3444 144.019 24.0235 143.879L24.0234 143.879L24.0228 143.879C23.953 143.844 23.8832 143.813 23.8134 143.781C23.7436 143.75 23.6737 143.719 23.6039 143.684C23.2828 143.53 22.9617 143.376 22.6545 143.223C22.5428 143.167 22.4451 143.111 22.3474 143.055C22.0262 142.888 21.7051 142.706 21.398 142.511C20.6161 142.022 19.904 141.478 19.2758 140.905C16.7626 138.574 15.534 135.558 15.534 131.704V127.474C15.534 122.476 19.5969 118.399 24.6092 118.399ZM55.9677 156.11L55.9259 156.277C53.329 166.972 53.9153 177.569 57.336 185.374L26.6199 150.679C33.3774 152.466 42.1734 152.94 53.2173 152.117C54.055 152.089 55.13 152.2 55.7164 152.954C56.2749 153.666 56.3587 154.839 55.9677 156.11Z" fill="#000000"/>
<path d="M173.478 192.902L159.92 169.132H152.113V192.902H135.68V120.557H164.439C171.287 120.557 177.106 122.968 181.9 127.791C186.694 132.614 189.09 138.471 189.09 145.361C189.09 149.771 187.857 153.87 185.392 157.66C182.996 161.38 179.812 164.274 175.84 166.341L191.144 192.902H173.478ZM152.113 136.059V154.663H164.439C166.699 154.663 168.616 153.767 170.191 151.975C171.834 150.184 172.656 147.979 172.656 145.361C172.656 142.743 171.834 140.538 170.191 138.746C168.616 136.955 166.699 136.059 164.439 136.059H152.113ZM209.513 173.266C211.294 178.089 215.403 180.5 221.839 180.5C226.016 180.5 229.303 179.191 231.699 176.573L244.024 183.704C238.958 190.801 231.493 194.349 221.633 194.349C213.005 194.349 206.09 191.766 200.885 186.598C195.75 181.43 193.182 174.919 193.182 167.065C193.182 159.279 195.716 152.802 200.783 147.635C205.918 142.398 212.492 139.78 220.503 139.78C227.967 139.78 234.164 142.398 239.094 147.635C244.093 152.802 246.592 159.279 246.592 167.065C246.592 169.269 246.387 171.337 245.976 173.266H209.513ZM209.205 161.69H231.288C229.782 156.247 226.152 153.526 220.401 153.526C214.443 153.526 210.712 156.247 209.205 161.69ZM255.331 192.902V117.456H270.738V192.902H255.331ZM295.776 173.266C297.556 178.089 301.664 180.5 308.101 180.5C312.277 180.5 315.564 179.191 317.962 176.573L330.287 183.704C325.219 190.801 317.756 194.349 307.896 194.349C299.268 194.349 292.351 191.766 287.148 186.598C282.012 181.43 279.445 174.919 279.445 167.065C279.445 159.279 281.977 152.802 287.045 147.635C292.181 142.398 298.754 139.78 306.766 139.78C314.229 139.78 320.427 142.398 325.357 147.635C330.355 152.802 332.855 159.279 332.855 167.065C332.855 169.269 332.649 171.337 332.238 173.266H295.776ZM295.468 161.69H317.551C316.044 156.247 312.415 153.526 306.663 153.526C300.706 153.526 296.973 156.247 295.468 161.69ZM378.376 141.227H393.782V192.902H378.376V188.045C374.747 192.248 369.645 194.349 363.072 194.349C356.293 194.349 350.507 191.731 345.713 186.495C340.921 181.189 338.523 174.713 338.523 167.065C338.523 159.417 340.921 152.975 345.713 147.738C350.507 142.433 356.293 139.78 363.072 139.78C369.645 139.78 374.747 141.881 378.376 146.084V141.227ZM357.32 176.263C359.579 178.537 362.524 179.674 366.153 179.674C369.783 179.674 372.727 178.537 374.986 176.263C377.246 173.989 378.376 170.923 378.376 167.065C378.376 163.206 377.246 160.14 374.986 157.866C372.727 155.593 369.783 154.456 366.153 154.456C362.524 154.456 359.579 155.593 357.32 157.866C355.06 160.14 353.93 163.206 353.93 167.065C353.93 170.923 355.06 173.989 357.32 176.263ZM419.17 156.316C419.17 157.35 420.025 158.211 421.738 158.9C423.518 159.52 425.641 160.175 428.106 160.864C430.571 161.484 433.036 162.311 435.501 163.344C437.966 164.378 440.054 166.1 441.766 168.512C443.546 170.854 444.437 173.817 444.437 177.4C444.437 182.981 442.383 187.218 438.274 190.112C434.166 192.937 429.098 194.349 423.073 194.349C412.253 194.349 404.893 190.25 400.99 182.051L414.342 174.403C415.711 178.468 418.621 180.5 423.073 180.5C426.77 180.5 428.619 179.432 428.619 177.296C428.619 176.263 427.729 175.402 425.949 174.713C424.237 174.024 422.148 173.369 419.683 172.749C417.218 172.06 414.753 171.199 412.288 170.165C409.823 169.063 407.7 167.375 405.92 165.101C404.208 162.827 403.352 160.037 403.352 156.73C403.352 151.355 405.269 147.187 409.104 144.224C413.007 141.261 417.8 139.78 423.484 139.78C427.729 139.78 431.598 140.745 435.09 142.674C438.582 144.534 441.389 147.256 443.513 150.839L430.365 157.97C428.722 154.938 426.427 153.422 423.484 153.422C420.608 153.422 419.17 154.387 419.17 156.316ZM465.39 173.266C467.171 178.089 471.28 180.5 477.716 180.5C481.893 180.5 485.18 179.191 487.576 176.573L499.901 183.704C494.835 190.801 487.371 194.349 477.51 194.349C468.882 194.349 461.967 191.766 456.762 186.598C451.627 181.43 449.059 174.919 449.059 167.065C449.059 159.279 451.593 152.802 456.66 147.635C461.795 142.398 468.369 139.78 476.38 139.78C483.844 139.78 490.041 142.398 494.971 147.635C499.97 152.802 502.469 159.279 502.469 167.065C502.469 169.269 502.264 171.337 501.853 173.266H465.39ZM465.082 161.69H487.165C485.659 156.247 482.03 153.526 476.278 153.526C470.32 153.526 466.589 156.247 465.082 161.69ZM547.991 120.557H563.398V192.902H547.991V188.045C544.362 192.248 539.261 194.349 532.687 194.349C525.908 194.349 520.122 191.731 515.329 186.495C510.535 181.189 508.139 174.713 508.139 167.065C508.139 159.417 510.535 152.975 515.329 147.738C520.122 142.433 525.908 139.78 532.687 139.78C539.261 139.78 544.362 141.881 547.991 146.084V120.557ZM526.935 176.263C529.195 178.537 532.14 179.674 535.768 179.674C539.397 179.674 542.342 178.537 544.602 176.263C546.861 173.989 547.991 170.923 547.991 167.065C547.991 163.206 546.861 160.14 544.602 157.866C542.342 155.593 539.397 154.456 535.768 154.456C532.14 154.456 529.195 155.593 526.935 157.866C524.676 160.14 523.546 163.206 523.546 167.065C523.546 170.923 524.676 173.989 526.935 176.263Z" fill="#000000"/>
</svg>
