<svg width="32" height="33" viewBox="0 0 32 33" fill="none" xmlns="http://www.w3.org/2000/svg">
<g clip-path="url(#clip0_721_510)">
<rect y="0.0195312" width="32" height="32" rx="2" fill="#7C3AED"/>
<path d="M23.0751 6.14844H7.85182C6.4612 6.14844 5.33398 7.27953 5.33398 8.66628V9.83998C5.33398 10.9091 5.67486 11.7458 6.37211 12.3927C6.54642 12.5515 6.74398 12.7026 6.9609 12.8381C7.04612 12.8924 7.13521 12.9427 7.2243 12.9892C7.25142 13.0047 7.27853 13.0202 7.30952 13.0357C7.39474 13.0783 7.48383 13.1209 7.57292 13.1635C7.61166 13.1829 7.6504 13.1984 7.68913 13.2178C7.77823 13.2565 7.86732 13.2952 7.96028 13.3301C8.00677 13.3495 8.05325 13.365 8.09973 13.3804C8.1927 13.4153 8.28954 13.4463 8.38638 13.4773C8.43674 13.4928 8.49097 13.5083 8.5452 13.5238C8.64591 13.5548 8.74662 13.5819 8.85121 13.609C8.90544 13.6245 8.96355 13.6361 9.02165 13.6516C9.13011 13.6787 9.2347 13.702 9.34703 13.7291C9.39739 13.7407 9.45162 13.7484 9.50585 13.7601C9.76926 13.8104 10.0443 13.8569 10.3309 13.8956C10.3542 13.8995 10.3774 13.9034 10.4007 13.9073C10.5052 13.9189 10.6176 13.9305 10.726 13.9421C10.819 13.9537 10.912 13.9615 11.0049 13.9731C11.1095 13.9809 11.218 13.9886 11.3226 13.9964C11.4272 14.0041 11.5356 14.0118 11.6441 14.0196C11.7487 14.0273 11.8571 14.0312 11.9656 14.0351C12.0818 14.039 12.2019 14.0467 12.322 14.0467C12.4265 14.0506 12.535 14.0506 12.6435 14.0545C12.7713 14.0583 12.903 14.0583 13.0347 14.0583C13.1393 14.0583 13.2477 14.0583 13.3562 14.0583C13.4995 14.0583 13.6467 14.0544 13.7939 14.0506C13.8946 14.0467 13.9954 14.0467 14.0999 14.0428C14.2704 14.039 14.4447 14.0273 14.619 14.0196C14.7081 14.0157 14.7933 14.0118 14.8824 14.008C15.1497 13.9925 15.4208 13.977 15.6959 13.9537H15.7114C16.5558 13.9111 17.2647 14.2055 17.7179 14.7827C18.1827 15.3831 18.3028 16.2043 18.0471 17.0449C18.0007 17.2347 17.958 17.4245 17.9232 17.6143C17.9116 17.6801 17.8999 17.746 17.8883 17.808C17.8651 17.9319 17.8418 18.0559 17.8225 18.1798C17.8108 18.2612 17.7992 18.3386 17.7876 18.42C17.7721 18.5285 17.7566 18.6369 17.745 18.7415C17.7334 18.8306 17.7256 18.9158 17.7179 19.0049C17.7101 19.1017 17.6985 19.2025 17.6908 19.2993C17.683 19.3923 17.6791 19.4852 17.6753 19.5782C17.6714 19.6673 17.6675 19.7564 17.6636 19.8455C17.6598 19.9423 17.6598 20.0392 17.6559 20.136C17.6559 20.2174 17.6559 20.2987 17.6559 20.38C17.6559 20.4807 17.6598 20.5853 17.6636 20.686C17.6675 20.7596 17.6675 20.8294 17.6714 20.8991C17.6753 21.0076 17.683 21.1121 17.6908 21.2206C17.6946 21.2826 17.7024 21.3407 17.7063 21.4027C17.7179 21.515 17.7295 21.6273 17.7411 21.7397C17.7489 21.7862 17.7527 21.8326 17.7605 21.8791C17.776 21.9992 17.7953 22.1232 17.8147 22.2394C17.8186 22.2665 17.8263 22.2936 17.8302 22.3207C17.9968 23.2349 18.2796 24.0561 18.6785 24.7262C18.7676 24.8812 18.8645 25.0284 18.9652 25.1678C19.5385 25.9387 20.228 26.357 21.0182 26.4035H23.0828C24.4734 26.4035 25.6007 25.2724 25.6007 23.8856V8.6624C25.5968 7.27952 24.4657 6.14844 23.0751 6.14844Z" fill="white"/>
<path d="M16.5408 16.6568L16.5525 16.6104C16.6609 16.2579 16.6377 15.9325 16.4827 15.7349C16.32 15.5257 16.0218 15.4947 15.7894 15.5025C12.7253 15.731 10.285 15.5993 8.41016 15.1035L16.9321 24.7294C15.983 22.5641 15.8204 19.624 16.5408 16.6568Z" fill="white"/>
</g>
<defs>
<clipPath id="clip0_721_510">
<rect width="32" height="32" fill="white" transform="translate(0 0.0195312)"/>
</clipPath>
</defs>
</svg>
